<svg xmlns="http://www.w3.org/2000/svg" width="100" height="100" fill="none" xmlns:v="https://vecta.io/nano"><g clip-path="url(#A)"><g clip-path="url(#B)"><path d="M20 58.095c0 29.272 14.637 43.909 43.909 43.909s43.909-14.637 43.909-43.909-14.636-43.909-43.91-43.909S20 28.823 20 58.095z" fill="#fed925"/><path d="M14.362 51.218c0 29.272 14.637 43.909 43.909 43.909S102.18 80.49 102.18 51.218 87.543 7.309 58.271 7.309 14.362 21.945 14.362 51.218z" fill="#ffc629"/><path d="M-6.134 56.812c3.831 35.024 23.261 50.619 58.283 46.788s50.619-23.259 46.788-58.283S75.676-5.304 40.654-1.471-9.967 21.788-6.134 56.812z" fill="#ffb71b"/><path d="M5.223 60.314c3.18 29.062 19.3 42.003 48.362 38.823s42.002-19.3 38.823-48.362-19.3-42.002-48.362-38.823S2.045 31.254 5.223 60.314z" fill="#ffc629"/><path d="M16.954 62.966c2.097 19.171 12.732 27.709 31.904 25.61s27.709-12.732 25.61-31.904-12.732-27.709-31.904-25.61-27.709 12.732-25.61 31.904z" fill="#ffcd00"/><g fill="#fff"><path d="M46.397 68.826a36.3 36.3 0 0 1-2.45-.08l-2.312-.239-2.175-.404-2.035-.57a19.51 19.51 0 0 1-1.894-.741c-.607-.276-1.195-.583-1.748-.915a16.25 16.25 0 0 1-1.595-1.091 15.36 15.36 0 0 1-1.434-1.265c-.447-.447-.873-.929-1.265-1.434a16.08 16.08 0 0 1-1.091-1.595 17.2 17.2 0 0 1-.915-1.748c-.274-.602-.523-1.239-.741-1.894l-.57-2.035-.404-2.175-.239-2.312-.08-2.451.08-2.45.239-2.312.404-2.174.57-2.035a19.64 19.64 0 0 1 .741-1.894c.276-.607.585-1.195.915-1.748s.701-1.094 1.091-1.595a15.54 15.54 0 0 1 1.265-1.434 15.41 15.41 0 0 1 1.434-1.265 16.01 16.01 0 0 1 1.595-1.091c.553-.332 1.14-.64 1.748-.915a19.56 19.56 0 0 1 1.894-.741l2.035-.57 2.175-.404 2.313-.239c1.575-.104 3.327-.104 4.901 0l2.313.239 2.175.404 2.035.57c.655.218 1.291.468 1.895.741a17.09 17.09 0 0 1 1.747.915 16.26 16.26 0 0 1 1.595 1.091 15.58 15.58 0 0 1 1.434 1.265c.447.447.873.929 1.265 1.434a16.08 16.08 0 0 1 1.091 1.595 17.51 17.51 0 0 1 .915 1.748 19.31 19.31 0 0 1 .741 1.894l.571 2.035.402 2.174.239 2.313.08 2.45-.08 2.451-.239 2.313-.402 2.174-.571 2.035a19.66 19.66 0 0 1-.741 1.894 17.71 17.71 0 0 1-.915 1.749 16.36 16.36 0 0 1-1.091 1.595 15.29 15.29 0 0 1-1.265 1.434c-.447.447-.929.873-1.434 1.265a16.08 16.08 0 0 1-1.595 1.091c-.556.333-1.142.639-1.747.915a19.37 19.37 0 0 1-1.895.741l-2.035.57-2.175.403-2.312.239-2.451.08v.001zm0-41.434l-2.42.078-2.277.236-2.136.395-1.993.559a19.09 19.09 0 0 0-1.849.723 16.87 16.87 0 0 0-1.7.891 15.71 15.71 0 0 0-1.548 1.06 14.79 14.79 0 0 0-1.39 1.227c-.433.434-.847.902-1.227 1.39a15.25 15.25 0 0 0-1.059 1.548 16.84 16.84 0 0 0-.891 1.7c-.268.587-.511 1.21-.723 1.849l-.559 1.993-.395 2.136-.236 2.278-.078 2.42.078 2.42.236 2.277.395 2.136.559 1.993c.213.64.457 1.261.723 1.849a17.01 17.01 0 0 0 .891 1.702c.324.541.681 1.061 1.06 1.548a14.9 14.9 0 0 0 1.227 1.39c.434.433.902.847 1.39 1.227a15.71 15.71 0 0 0 1.548 1.06 16.69 16.69 0 0 0 1.702.891 19.08 19.08 0 0 0 1.849.723l1.993.559 2.135.395 2.277.236a37.46 37.46 0 0 0 4.839 0l2.277-.236 2.135-.395 1.993-.559a19.1 19.1 0 0 0 1.849-.723 17.33 17.33 0 0 0 1.702-.891c.54-.323 1.062-.681 1.548-1.059a15.02 15.02 0 0 0 1.39-1.227 15.01 15.01 0 0 0 1.227-1.39 15.71 15.71 0 0 0 1.06-1.548 17.13 17.13 0 0 0 .891-1.7 18.99 18.99 0 0 0 .723-1.849l.559-1.993.395-2.136.236-2.277.078-2.42-.078-2.419-.236-2.277-.395-2.135-.559-1.993c-.213-.64-.457-1.261-.723-1.849a17.02 17.02 0 0 0-.891-1.702 15.56 15.56 0 0 0-1.059-1.548 15.01 15.01 0 0 0-1.227-1.39 14.99 14.99 0 0 0-1.39-1.227 15.7 15.7 0 0 0-1.548-1.059 16.69 16.69 0 0 0-1.702-.891 18.9 18.9 0 0 0-1.849-.723l-1.993-.559-2.135-.395-2.277-.236-2.42-.078m-4.368 34.741c-4.727 0-8.324-1.201-10.692-3.568s-3.568-5.966-3.568-10.692 1.201-8.324 3.568-10.693 5.966-3.568 10.692-3.568 8.324 1.201 10.692 3.568 3.568 5.966 3.568 10.693-1.201 8.324-3.568 10.692-5.966 3.568-10.692 3.568zm0-28.358c-4.681 0-8.24 1.184-10.577 3.52s-3.52 5.894-3.52 10.576 1.184 8.24 3.52 10.576 5.894 3.522 10.577 3.522 8.24-1.184 10.576-3.522 3.52-5.895 3.52-10.576-1.184-8.24-3.52-10.576-5.894-3.52-10.576-3.52zm6.487 59.984h-.21l-4.334-.209-4.526-.583-4.721-.952-4.65-1.256-4.311-1.499-3.972-1.747-3.629-2.004c-1.15-.711-2.254-1.473-3.279-2.264a34.33 34.33 0 0 1-2.919-2.529 31.39 31.39 0 0 1-2.547-2.794 30.17 30.17 0 0 1-2.162-3.051 30.34 30.34 0 0 1-1.765-3.296 31.41 31.41 0 0 1-1.363-3.527c-.384-1.202-.707-2.461-.961-3.741a38.34 38.34 0 0 1-.563-3.946l-.173-4.14.209-4.334.583-4.526.952-4.721 1.254-4.65 1.499-4.311 1.747-3.972 2.004-3.629a38.27 38.27 0 0 1 2.265-3.279 34.33 34.33 0 0 1 2.529-2.919 31.39 31.39 0 0 1 2.794-2.547 30.01 30.01 0 0 1 3.051-2.161 30.08 30.08 0 0 1 3.297-1.765c1.131-.519 2.318-.977 3.527-1.363a34.14 34.14 0 0 1 3.741-.961c1.271-.251 2.598-.441 3.946-.563l4.142-.173 4.334.209 4.528.583 4.721.952 4.65 1.254 4.311 1.499 3.972 1.747 3.629 2.004a38.18 38.18 0 0 1 3.279 2.264c1.033.799 2.016 1.65 2.919 2.529a31.65 31.65 0 0 1 2.547 2.794c.784.973 1.511 1.998 2.162 3.051a30.08 30.08 0 0 1 1.765 3.296 31.27 31.27 0 0 1 1.363 3.527c.384 1.202.707 2.462.961 3.741a38.32 38.32 0 0 1 .563 3.946l.173 4.141-.209 4.334-.583 4.526-.953 4.721-1.256 4.65-1.499 4.311-1.747 3.972-2.004 3.629c-.711 1.15-1.473 2.253-2.264 3.279-.799 1.033-1.65 2.016-2.529 2.919a31.39 31.39 0 0 1-2.794 2.547 30.31 30.31 0 0 1-3.051 2.162 30.1 30.1 0 0 1-3.297 1.765 31.33 31.33 0 0 1-3.527 1.363c-1.202.384-2.461.707-3.741.961-1.271.251-2.598.441-3.946.563l-3.931.173-.001.001zM39.762 10.81l-3.889.172c-1.331.121-2.643.308-3.898.556-1.264.25-2.506.568-3.69.947a31.07 31.07 0 0 0-3.475 1.342 29.76 29.76 0 0 0-3.246 1.738 29.82 29.82 0 0 0-3.004 2.129c-.954.768-1.88 1.614-2.753 2.51a33.89 33.89 0 0 0-2.495 2.879c-.782 1.013-1.536 2.103-2.237 3.239l-1.982 3.59-1.732 3.936-1.486 4.278-1.248 4.619-.947 4.691-.579 4.492-.207 4.294.172 4.097c.121 1.33.307 2.642.556 3.898a33.53 33.53 0 0 0 .947 3.69 31.1 31.1 0 0 0 1.342 3.475 29.76 29.76 0 0 0 3.866 6.25c.772.958 1.614 1.88 2.51 2.753a33.59 33.59 0 0 0 2.879 2.495 37.69 37.69 0 0 0 3.239 2.237l3.59 1.982 3.936 1.732 4.278 1.486 4.62 1.246 4.691.947 4.492.579 4.294.207 4.097-.171a38.07 38.07 0 0 0 3.898-.556 33.54 33.54 0 0 0 3.69-.947c1.191-.38 2.36-.832 3.475-1.342a29.76 29.76 0 0 0 3.246-1.738 29.82 29.82 0 0 0 3.004-2.129 31.09 31.09 0 0 0 2.753-2.51 33.73 33.73 0 0 0 2.495-2.879 37.69 37.69 0 0 0 2.237-3.239l1.982-3.59 1.732-3.936 1.486-4.278 1.246-4.621.947-4.691.579-4.492.207-4.294-.172-4.097c-.121-1.33-.307-2.641-.556-3.898a33.54 33.54 0 0 0-.947-3.69 31.07 31.07 0 0 0-1.342-3.475 29.76 29.76 0 0 0-1.737-3.246 29.82 29.82 0 0 0-2.129-3.004 30.93 30.93 0 0 0-2.51-2.753 33.89 33.89 0 0 0-2.879-2.495 37.75 37.75 0 0 0-3.239-2.237l-3.59-1.982-3.936-1.732-4.278-1.486-4.621-1.248-4.691-.947-4.492-.579-4.294-.207h-.207l.003.003z"/><path d="M35.029 86.267c-4.814 0-9.184-.93-13.079-2.794-8.134-3.891-14.406-11.95-18.64-23.95s-4.408-22.21-.517-30.344 11.95-14.406 23.95-18.64 22.21-4.408 30.344-.517 14.406 11.95 18.64 23.95 4.408 22.21.517 30.344-11.95 14.406-23.95 18.64c-6.255 2.207-12.024 3.312-17.266 3.312h.001zM3.749 59.367c4.191 11.88 10.384 19.849 18.403 23.685s18.109 3.656 29.988-.537 19.849-10.384 23.685-18.403 3.656-18.109-.537-29.989S64.905 14.276 56.886 10.44s-18.109-3.656-29.989.535S7.05 21.36 3.213 29.379s-3.656 18.109.535 29.988"/><path d="M69.799 101.284c-.663 0-1.326-.018-1.989-.054-1.469-.08-2.963-.251-4.444-.508a41.81 41.81 0 0 1-4.466-1.033 47.09 47.09 0 0 1-4.478-1.549l-4.486-2.055-4.496-2.55-4.508-3.038-4.526-3.522-4.293-3.793-3.804-3.858-3.313-3.928-2.815-4.002a45.51 45.51 0 0 1-2.307-4.079c-.682-1.371-1.283-2.768-1.787-4.153-.506-1.393-.928-2.812-1.254-4.222a34.51 34.51 0 0 1-.712-4.275c-.146-1.423-.2-2.874-.165-4.312s.165-2.89.38-4.331c.215-1.433.524-2.892.919-4.335a42.31 42.31 0 0 1 1.447-4.333 48.22 48.22 0 0 1 1.964-4.324l2.47-4.318 2.97-4.315 3.464-4.316.062.053-.062-.053 3.749-4.08 3.83-3.601 3.917-3.118 4.009-2.628c1.349-.792 2.73-1.508 4.103-2.129 1.382-.624 2.793-1.169 4.196-1.618 1.409-.452 2.851-.819 4.281-1.095 1.437-.276 2.901-.465 4.353-.564s2.935-.107 4.408-.026c1.467.08 2.963.25 4.445.506 1.474.255 2.977.604 4.466 1.033a47.38 47.38 0 0 1 4.478 1.549l4.486 2.054 4.496 2.55 4.508 3.039 4.526 3.523 4.293 3.793 3.804 3.858 3.313 3.928 2.815 4.002c.853 1.346 1.629 2.719 2.307 4.079.682 1.371 1.283 2.768 1.787 4.153a36.62 36.62 0 0 1 1.254 4.221c.328 1.414.567 2.852.712 4.275s.201 2.875.165 4.312-.165 2.89-.38 4.331c-.216 1.433-.524 2.892-.92 4.336a42.21 42.21 0 0 1-1.446 4.333c-.564 1.431-1.226 2.886-1.964 4.324l-2.47 4.318-2.97 4.315-3.464 4.318-3.75 4.08-3.83 3.601-3.917 3.118-4.009 2.628a43.6 43.6 0 0 1-4.103 2.129c-1.383.624-2.794 1.169-4.195 1.618-1.411.452-2.85.821-4.281 1.095a36.15 36.15 0 0 1-4.353.564l-2.419.081-.001-.002zM64.426 1.326l-2.407.081a35.6 35.6 0 0 0-4.333.561c-1.425.274-2.859.641-4.263 1.091-1.396.447-2.802.989-4.178 1.611a43.39 43.39 0 0 0-4.088 2.12c-1.337.784-2.68 1.665-3.995 2.619l-3.906 3.108-3.821 3.593-3.741 4.072-3.457 4.308-2.963 4.305-2.463 4.305-1.957 4.309c-.565 1.436-1.051 2.888-1.441 4.316-.393 1.438-.701 2.89-.915 4.318-.215 1.434-.343 2.885-.379 4.312a33.9 33.9 0 0 0 .165 4.292c.145 1.416.383 2.848.709 4.254a36.51 36.51 0 0 0 1.249 4.202 39.98 39.98 0 0 0 1.78 4.136 45.18 45.18 0 0 0 2.299 4.064l2.805 3.99 3.305 3.917 3.796 3.85 4.285 3.787 4.518 3.516 4.499 3.032 4.485 2.544 4.473 2.049 4.463 1.544c1.485.43 2.981.776 4.448 1.03a38.42 38.42 0 0 0 4.426.505c1.466.079 2.942.071 4.388-.028a35.81 35.81 0 0 0 4.333-.561c1.425-.275 2.859-.641 4.263-1.091a39.44 39.44 0 0 0 4.178-1.611 43.72 43.72 0 0 0 4.088-2.12l3.995-2.619 3.906-3.108 3.821-3.593 3.743-4.072 3.457-4.308 2.963-4.305 2.463-4.305 1.957-4.309c.567-1.437 1.052-2.887 1.441-4.315.393-1.438.702-2.89.916-4.318a34.98 34.98 0 0 0 .378-4.312 33.94 33.94 0 0 0-.164-4.292c-.146-1.416-.383-2.848-.71-4.254s-.745-2.816-1.249-4.202a39.83 39.83 0 0 0-1.78-4.136 45.48 45.48 0 0 0-2.297-4.064l-2.805-3.99-3.305-3.917-3.796-3.85L97.72 15.6l-4.518-3.516-4.499-3.032-4.485-2.543-4.473-2.049c-1.486-.598-2.989-1.119-4.463-1.544a41.87 41.87 0 0 0-4.448-1.031 38.27 38.27 0 0 0-4.426-.505l-1.98-.054"/></g><path d="M75.363 53.227l.188.333c1.099 1.923 3.107 2.985 5.181 2.914.754-.026 1.515-.202 2.244-.541a5.56 5.56 0 0 0 2.492-2.263 5.57 5.57 0 0 0 .745-3.758c-.199-1.315-.785-2.442-1.766-3.35-1.113-1.031-2.437-1.553-3.948-1.536-1.725.021-3.172.695-4.307 2.001-.773.891-1.22 1.928-1.339 3.1-.032.31-.017.624-.04.935l-.126 1.403c-.128 1.029-.397 2.024-.78 2.988-.564 1.416-1.354 2.693-2.376 3.828a12.69 12.69 0 0 1-4.057 3.017c-1.474.696-3.029 1.092-4.655 1.193-2.053.128-4.025-.229-5.91-1.05-1.626-.708-3.043-1.718-4.248-3.018-.83-.895-1.519-1.888-2.061-2.985-.457-.925-.796-1.888-1.029-2.894-.273-1.182-.355-2.377-.287-3.581.066-1.162.3-2.293.683-3.397.484-1.396 1.187-2.669 2.113-3.817 1.178-1.462 2.609-2.613 4.297-3.442C57.63 38.692 59.565 38 61.819 38c4.355 0 6.505 1.547 8.219 2.803l.638.545c-3.209 3.316-3.456 6.924-3.456 6.924l-.532-.852c-1.226-1.553-2.885-2.472-4.941-2.383-2.738.119-4.972 2.138-5.388 4.887-.209 1.381.056 2.693.824 3.863 1.254 1.915 3.054 2.823 5.34 2.66a5.68 5.68 0 0 0 5.188-4.934c.071-.571.069-1.151.103-1.727.059-.998.262-1.968.566-2.921.325-1.02.771-1.98 1.339-2.887.973-1.556 2.226-2.842 3.754-3.857C75.381 38.888 77.656 38 80.753 38c2.635 0 5.691 1.114 7.621 2.669 1.533 1.187 2.731 2.65 3.598 4.385.574 1.146.969 2.348 1.175 3.609.218 1.335.224 2.675.022 4.017a12.54 12.54 0 0 1-.752 2.782c-.568 1.426-1.367 2.709-2.402 3.848-.972 1.071-2.087 1.953-3.357 2.643-1.558.848-3.221 1.356-4.989 1.505-2.964.251-5.691-.456-8.182-2.074-.587-.382-1.136-.786-1.659-1.279.845-.865 1.534-1.844 2.16-2.903 1.043-1.764 1.377-3.979 1.377-3.979l-.001.001zm-49.49 3.472c-.03 2.842 2.237 5.024 4.935 5.059 2.808.036 5.057-2.211 5.071-4.954a4.98 4.98 0 0 0-5.015-5.041c-2.72 0-4.964 2.175-4.993 4.936h.001zm-7.115-11.788a4.99 4.99 0 0 0-4.964-5.061 4.98 4.98 0 0 0-5.037 5.017c0 2.752 2.234 4.978 4.993 4.978a4.99 4.99 0 0 0 5.008-4.934zm29.639-6.47h-9.964v7.112h2.9v17.063h7.064V38.442zM7.142 62.616h9.345l20.426-24.175h-9.321L7.142 62.616z" fill="#000"/></g></g><defs><clipPath id="A"><rect width="100" height="100" rx="50" fill="#fff"/></clipPath><clipPath id="B"><path fill="#fff" d="M0 0h118.284v102.004H0z"/></clipPath></defs></svg>